# xmcd
#
# Track frame offsets: 
#        150
#        13662
#        26087
#        35599
#        45171
#        55370
#        66189
#        76330
#        88109
#        101938
#        115457
#        125311
#        136684
#        147979
#        157402
#        167947
#        179585
#        192981
#        205481
#        220321
#        232658
#        242502
#
# Disc length: 3408 seconds
#
# Revision: 6
# Processed by: cddbd v1.5.2PL0 Copyright (c) Steve Scherf et al.
# Submitted via: ExactAudioCopy v1.1
#
DISCID=410d4e16
DTITLE=Slim Harpo - The Excello Singles Anthology - Disc 1
DYEAR=2003
DGENRE=Blues
TTITLE0=I'm A King Bee (mono)
TTITLE1=I Got Love If You Want It (mono)
TTITLE2=Wondering And Worryin' (mono)
TTITLE3=Strange Love (mono)
TTITLE4=You'll Be Sorry One Day (mono)
TTITLE5=One More Day (mono)
TTITLE6=Buzz Me Babe (mono)
TTITLE7=Late Last Night (mono)
TTITLE8=Blues Hangover (mono)
TTITLE9=What A Dream (mono)
TTITLE10=Don't Start Cryin' Now (mono)
TTITLE11=Rainin' In My Heart (mono)
TTITLE12=I Love The Life I'm Living (mono)
TTITLE13=Buzzin' (mono)
TTITLE14=I Need Money (Keep Your Alibis) (mono)
TTITLE15=Little Queen Bee (Got A Brand New King) (mono)
TTITLE16=Still Rainin' In My Heart (mono)
TTITLE17=We're Two Of A Kind (mono)
TTITLE18=Sittin' Here Wondering (mono)
TTITLE19=What's Goin' On Baby (mono)
TTITLE20=Harpo's Blues (mono)
TTITLE21=Please Don't Turn Me Down (mono)
EXTD=
EXTT0=I'm a King Bee
EXTT1=
EXTT2=
EXTT3=
EXTT4=
EXTT5=
EXTT6=
EXTT7=
EXTT8=
EXTT9=
EXTT10=
EXTT11=
EXTT12=
EXTT13=
EXTT14=
EXTT15=
EXTT16=
EXTT17=
EXTT18=
EXTT19=
EXTT20=
EXTT21=
PLAYORDER=
